<svg xmlns="http://www.w3.org/2000/svg" viewBox="0 0 799 799" width="100mm" height="100mm" preserveAspectRatio="none" shape-rendering="crispEdges"><rect x="0" y="0" width="799" height="799" fill="#fff"/><rect x="20" y="15" width="760" height="770" fill="none" stroke="#000" stroke-width="3"/><text x="60" y="48" font-family="'DejaVu Sans Mono','Liberation Mono','Consolas','Courier New',monospace" font-size="28" fill="#000">Sube: ORNEK</text><text x="470" y="46" font-family="'DejaVu Sans Mono','Liberation Mono','Consolas','Courier New',monospace" font-size="26" fill="#000">T.No: 10000000000001</text><rect x="60" y="150" width="6" height="150" fill="#000"/><rect x="69" y="150" width="3" height="150" fill="#000"/><rect x="78" y="150" width="3" height="150" fill="#000"/><rect x="93" y="150" width="3" height="150" fill="#000"/><rect x="102" y="150" width="9" height="150" fill="#000"/><rect x="114" y="150" width="6" height="150" fill="#000"/><rect x="126" y="150" width="3" height="150" fill="#000"/><rect x="135" y="150" width="9" height="150" fill="#000"/><rect x="150" y="150" width="6" height="150" fill="#000"/><rect x="159" y="150" width="6" height="150" fill="#000"/><rect x="171" y="150" width="9" height="150" fill="#000"/><rect x="186" y="150" width="3" height="150" fill="#000"/><rect x="192" y="150" width="3" height="150" fill="#000"/><rect x="201" y="150" width="9" height="150" fill="#000"/><rect x="213" y="150" width="6" height="150" fill="#000"/><rect x="225" y="150" width="3" height="150" fill="#000"/><rect x="234" y="150" width="9" height="150" fill="#000"/><rect x="246" y="150" width="6" height="150" fill="#000"/><rect x="258" y="150" width="3" height="150" fill="#000"/><rect x="267" y="150" width="9" height="150" fill="#000"/><rect x="279" y="150" width="6" height="150" fill="#000"/><rect x="291" y="150" width="3" height="150" fill="#000"/><rect x="300" y="150" width="9" height="150" fill="#000"/><rect x="312" y="150" width="6" height="150" fill="#000"/><rect x="324" y="150" width="3" height="150" fill="#000"/><rect x="333" y="150" width="9" height="150" fill="#000"/><rect x="345" y="150" width="6" height="150" fill="#000"/><rect x="357" y="150" width="3" height="150" fill="#000"/><rect x="366" y="150" width="9" height="150" fill="#000"/><rect x="378" y="150" width="6" height="150" fill="#000"/><rect x="390" y="150" width="3" height="150" fill="#000"/><rect x="399" y="150" width="9" height="150" fill="#000"/><rect x="411" y="150" width="6" height="150" fill="#000"/><rect x="423" y="150" width="3" height="150" fill="#000"/><rect x="432" y="150" width="9" height="150" fill="#000"/><rect x="447" y="150" width="6" height="150" fill="#000"/><rect x="456" y="150" width="3" height="150" fill="#000"/><rect x="462" y="150" width="9" height="150" fill="#000"/><rect x="480" y="150" width="6" height="150" fill="#000"/><rect x="489" y="150" width="6" height="150" fill="#000"/><rect x="504" y="150" width="9" height="150" fill="#000"/><rect x="516" y="150" width="3" height="150" fill="#000"/><rect x="522" y="150" width="6" height="150" fill="#000"/><text x="294" y="318" font-family="'DejaVu Sans Mono','Liberation Mono','Consolas','Courier New',monospace" font-size="18" text-anchor="middle" fill="#000" letter-spacing="2">01200000001</text><text x="60" y="369" font-family="'DejaVu Sans Mono','Liberation Mono','Consolas','Courier New',monospace" font-size="24" fill="#000">SENTETIK ALICI</text><text x="60" y="393" font-family="'DejaVu Sans Mono','Liberation Mono','Consolas','Courier New',monospace" font-size="18" fill="#000">ORNEK MAH ORNEK SOK NO 1 ORNEK ILCE</text><text x="60" y="500" font-family="'DejaVu Sans Mono','Liberation Mono','Consolas','Courier New',monospace" font-size="20" fill="#000">OdemeTipi Birim Top Ds/Kg</text><text x="60" y="540" font-family="'DejaVu Sans Mono','Liberation Mono','Consolas','Courier New',monospace" font-size="30" fill="#000">POCH KOLI 2,00</text><rect x="54" y="554" width="96" height="96" fill="#fff"/><rect x="60" y="560" width="6" height="6" fill="#000"/><rect x="72" y="560" width="6" height="6" fill="#000"/><rect x="84" y="560" width="6" height="6" fill="#000"/><rect x="96" y="560" width="6" height="6" fill="#000"/><rect x="108" y="560" width="6" height="6" fill="#000"/><rect x="120" y="560" width="6" height="6" fill="#000"/><rect x="132" y="560" width="6" height="6" fill="#000"/><rect x="60" y="566" width="6" height="6" fill="#000"/><rect x="66" y="566" width="6" height="6" fill="#000"/><rect x="84" y="566" width="6" height="6" fill="#000"/><rect x="114" y="566" width="6" height="6" fill="#000"/><rect x="138" y="566" width="6" height="6" fill="#000"/><rect x="60" y="572" width="6" height="6" fill="#000"/><rect x="84" y="572" width="6" height="6" fill="#000"/><rect x="102" y="572" width="6" height="6" fill="#000"/><rect x="120" y="572" width="6" height="6" fill="#000"/><rect x="60" y="578" width="6" height="6" fill="#000"/><rect x="72" y="578" width="6" height="6" fill="#000"/><rect x="102" y="578" width="6" height="6" fill="#000"/><rect x="108" y="578" width="6" height="6" fill="#000"/><rect x="114" y="578" width="6" height="6" fill="#000"/><rect x="120" y="578" width="6" height="6" fill="#000"/><rect x="126" y="578" width="6" height="6" fill="#000"/><rect x="132" y="578" width="6" height="6" fill="#000"/><rect x="138" y="578" width="6" height="6" fill="#000"/><rect x="60" y="584" width="6" height="6" fill="#000"/><rect x="66" y="584" width="6" height="6" fill="#000"/><rect x="72" y="584" width="6" height="6" fill="#000"/><rect x="90" y="584" width="6" height="6" fill="#000"/><rect x="102" y="584" width="6" height="6" fill="#000"/><rect x="114" y="584" width="6" height="6" fill="#000"/><rect x="120" y="584" width="6" height="6" fill="#000"/><rect x="132" y="584" width="6" height="6" fill="#000"/><rect x="60" y="590" width="6" height="6" fill="#000"/><rect x="90" y="590" width="6" height="6" fill="#000"/><rect x="126" y="590" width="6" height="6" fill="#000"/><rect x="138" y="590" width="6" height="6" fill="#000"/><rect x="60" y="596" width="6" height="6" fill="#000"/><rect x="78" y="596" width="6" height="6" fill="#000"/><rect x="96" y="596" width="6" height="6" fill="#000"/><rect x="102" y="596" width="6" height="6" fill="#000"/><rect x="114" y="596" width="6" height="6" fill="#000"/><rect x="132" y="596" width="6" height="6" fill="#000"/><rect x="60" y="602" width="6" height="6" fill="#000"/><rect x="90" y="602" width="6" height="6" fill="#000"/><rect x="102" y="602" width="6" height="6" fill="#000"/><rect x="114" y="602" width="6" height="6" fill="#000"/><rect x="126" y="602" width="6" height="6" fill="#000"/><rect x="138" y="602" width="6" height="6" fill="#000"/><rect x="60" y="608" width="6" height="6" fill="#000"/><rect x="66" y="608" width="6" height="6" fill="#000"/><rect x="78" y="608" width="6" height="6" fill="#000"/><rect x="84" y="608" width="6" height="6" fill="#000"/><rect x="96" y="608" width="6" height="6" fill="#000"/><rect x="114" y="608" width="6" height="6" fill="#000"/><rect x="120" y="608" width="6" height="6" fill="#000"/><rect x="60" y="614" width="6" height="6" fill="#000"/><rect x="66" y="614" width="6" height="6" fill="#000"/><rect x="72" y="614" width="6" height="6" fill="#000"/><rect x="78" y="614" width="6" height="6" fill="#000"/><rect x="90" y="614" width="6" height="6" fill="#000"/><rect x="96" y="614" width="6" height="6" fill="#000"/><rect x="102" y="614" width="6" height="6" fill="#000"/><rect x="108" y="614" width="6" height="6" fill="#000"/><rect x="120" y="614" width="6" height="6" fill="#000"/><rect x="126" y="614" width="6" height="6" fill="#000"/><rect x="138" y="614" width="6" height="6" fill="#000"/><rect x="60" y="620" width="6" height="6" fill="#000"/><rect x="78" y="620" width="6" height="6" fill="#000"/><rect x="84" y="620" width="6" height="6" fill="#000"/><rect x="102" y="620" width="6" height="6" fill="#000"/><rect x="120" y="620" width="6" height="6" fill="#000"/><rect x="132" y="620" width="6" height="6" fill="#000"/><rect x="60" y="626" width="6" height="6" fill="#000"/><rect x="72" y="626" width="6" height="6" fill="#000"/><rect x="96" y="626" width="6" height="6" fill="#000"/><rect x="102" y="626" width="6" height="6" fill="#000"/><rect x="120" y="626" width="6" height="6" fill="#000"/><rect x="138" y="626" width="6" height="6" fill="#000"/><rect x="60" y="632" width="6" height="6" fill="#000"/><rect x="66" y="632" width="6" height="6" fill="#000"/><rect x="84" y="632" width="6" height="6" fill="#000"/><rect x="120" y="632" width="6" height="6" fill="#000"/><rect x="60" y="638" width="6" height="6" fill="#000"/><rect x="66" y="638" width="6" height="6" fill="#000"/><rect x="72" y="638" width="6" height="6" fill="#000"/><rect x="78" y="638" width="6" height="6" fill="#000"/><rect x="84" y="638" width="6" height="6" fill="#000"/><rect x="90" y="638" width="6" height="6" fill="#000"/><rect x="96" y="638" width="6" height="6" fill="#000"/><rect x="102" y="638" width="6" height="6" fill="#000"/><rect x="108" y="638" width="6" height="6" fill="#000"/><rect x="114" y="638" width="6" height="6" fill="#000"/><rect x="120" y="638" width="6" height="6" fill="#000"/><rect x="126" y="638" width="6" height="6" fill="#000"/><rect x="132" y="638" width="6" height="6" fill="#000"/><rect x="138" y="638" width="6" height="6" fill="#000"/><text x="240" y="664" font-family="'DejaVu Sans Mono','Liberation Mono','Consolas','Courier New',monospace" font-size="34" fill="#000">ORNEKSEHIR/01</text><text x="240" y="710" font-family="'DejaVu Sans Mono','Liberation Mono','Consolas','Courier New',monospace" font-size="38" fill="#000">ORNEKSEHIR AKTARMA</text><rect x="660" y="560" width="6" height="6" fill="#000"/><rect x="666" y="560" width="6" height="6" fill="#000"/><rect x="672" y="560" width="6" height="6" fill="#000"/><rect x="678" y="560" width="6" height="6" fill="#000"/><rect x="684" y="560" width="6" height="6" fill="#000"/><rect x="690" y="560" width="6" height="6" fill="#000"/><rect x="696" y="560" width="6" height="6" fill="#000"/><rect x="714" y="560" width="6" height="6" fill="#000"/><rect x="726" y="560" width="6" height="6" fill="#000"/><rect x="732" y="560" width="6" height="6" fill="#000"/><rect x="744" y="560" width="6" height="6" fill="#000"/><rect x="750" y="560" width="6" height="6" fill="#000"/><rect x="756" y="560" width="6" height="6" fill="#000"/><rect x="762" y="560" width="6" height="6" fill="#000"/><rect x="768" y="560" width="6" height="6" fill="#000"/><rect x="774" y="560" width="6" height="6" fill="#000"/><rect x="780" y="560" width="6" height="6" fill="#000"/><rect x="660" y="566" width="6" height="6" fill="#000"/><rect x="696" y="566" width="6" height="6" fill="#000"/><rect x="720" y="566" width="6" height="6" fill="#000"/><rect x="744" y="566" width="6" height="6" fill="#000"/><rect x="780" y="566" width="6" height="6" fill="#000"/><rect x="660" y="572" width="6" height="6" fill="#000"/><rect x="672" y="572" width="6" height="6" fill="#000"/><rect x="678" y="572" width="6" height="6" fill="#000"/><rect x="684" y="572" width="6" height="6" fill="#000"/><rect x="696" y="572" width="6" height="6" fill="#000"/><rect x="714" y="572" width="6" height="6" fill="#000"/><rect x="732" y="572" width="6" height="6" fill="#000"/><rect x="744" y="572" width="6" height="6" fill="#000"/><rect x="756" y="572" width="6" height="6" fill="#000"/><rect x="762" y="572" width="6" height="6" fill="#000"/><rect x="768" y="572" width="6" height="6" fill="#000"/><rect x="780" y="572" width="6" height="6" fill="#000"/><rect x="660" y="578" width="6" height="6" fill="#000"/><rect x="672" y="578" width="6" height="6" fill="#000"/><rect x="678" y="578" width="6" height="6" fill="#000"/><rect x="684" y="578" width="6" height="6" fill="#000"/><rect x="696" y="578" width="6" height="6" fill="#000"/><rect x="720" y="578" width="6" height="6" fill="#000"/><rect x="726" y="578" width="6" height="6" fill="#000"/><rect x="732" y="578" width="6" height="6" fill="#000"/><rect x="744" y="578" width="6" height="6" fill="#000"/><rect x="756" y="578" width="6" height="6" fill="#000"/><rect x="762" y="578" width="6" height="6" fill="#000"/><rect x="768" y="578" width="6" height="6" fill="#000"/><rect x="780" y="578" width="6" height="6" fill="#000"/><rect x="660" y="584" width="6" height="6" fill="#000"/><rect x="672" y="584" width="6" height="6" fill="#000"/><rect x="678" y="584" width="6" height="6" fill="#000"/><rect x="684" y="584" width="6" height="6" fill="#000"/><rect x="696" y="584" width="6" height="6" fill="#000"/><rect x="714" y="584" width="6" height="6" fill="#000"/><rect x="720" y="584" width="6" height="6" fill="#000"/><rect x="732" y="584" width="6" height="6" fill="#000"/><rect x="744" y="584" width="6" height="6" fill="#000"/><rect x="756" y="584" width="6" height="6" fill="#000"/><rect x="762" y="584" width="6" height="6" fill="#000"/><rect x="768" y="584" width="6" height="6" fill="#000"/><rect x="780" y="584" width="6" height="6" fill="#000"/><rect x="660" y="590" width="6" height="6" fill="#000"/><rect x="696" y="590" width="6" height="6" fill="#000"/><rect x="708" y="590" width="6" height="6" fill="#000"/><rect x="720" y="590" width="6" height="6" fill="#000"/><rect x="726" y="590" width="6" height="6" fill="#000"/><rect x="732" y="590" width="6" height="6" fill="#000"/><rect x="744" y="590" width="6" height="6" fill="#000"/><rect x="780" y="590" width="6" height="6" fill="#000"/><rect x="660" y="596" width="6" height="6" fill="#000"/><rect x="666" y="596" width="6" height="6" fill="#000"/><rect x="672" y="596" width="6" height="6" fill="#000"/><rect x="678" y="596" width="6" height="6" fill="#000"/><rect x="684" y="596" width="6" height="6" fill="#000"/><rect x="690" y="596" width="6" height="6" fill="#000"/><rect x="696" y="596" width="6" height="6" fill="#000"/><rect x="708" y="596" width="6" height="6" fill="#000"/><rect x="720" y="596" width="6" height="6" fill="#000"/><rect x="732" y="596" width="6" height="6" fill="#000"/><rect x="744" y="596" width="6" height="6" fill="#000"/><rect x="750" y="596" width="6" height="6" fill="#000"/><rect x="756" y="596" width="6" height="6" fill="#000"/><rect x="762" y="596" width="6" height="6" fill="#000"/><rect x="768" y="596" width="6" height="6" fill="#000"/><rect x="774" y="596" width="6" height="6" fill="#000"/><rect x="780" y="596" width="6" height="6" fill="#000"/><rect x="714" y="602" width="6" height="6" fill="#000"/><rect x="726" y="602" width="6" height="6" fill="#000"/><rect x="732" y="602" width="6" height="6" fill="#000"/><rect x="660" y="608" width="6" height="6" fill="#000"/><rect x="678" y="608" width="6" height="6" fill="#000"/><rect x="690" y="608" width="6" height="6" fill="#000"/><rect x="696" y="608" width="6" height="6" fill="#000"/><rect x="708" y="608" width="6" height="6" fill="#000"/><rect x="738" y="608" width="6" height="6" fill="#000"/><rect x="750" y="608" width="6" height="6" fill="#000"/><rect x="660" y="614" width="6" height="6" fill="#000"/><rect x="678" y="614" width="6" height="6" fill="#000"/><rect x="684" y="614" width="6" height="6" fill="#000"/><rect x="690" y="614" width="6" height="6" fill="#000"/><rect x="708" y="614" width="6" height="6" fill="#000"/><rect x="714" y="614" width="6" height="6" fill="#000"/><rect x="720" y="614" width="6" height="6" fill="#000"/><rect x="738" y="614" width="6" height="6" fill="#000"/><rect x="756" y="614" width="6" height="6" fill="#000"/><rect x="762" y="614" width="6" height="6" fill="#000"/><rect x="780" y="614" width="6" height="6" fill="#000"/><rect x="678" y="620" width="6" height="6" fill="#000"/><rect x="684" y="620" width="6" height="6" fill="#000"/><rect x="696" y="620" width="6" height="6" fill="#000"/><rect x="714" y="620" width="6" height="6" fill="#000"/><rect x="732" y="620" width="6" height="6" fill="#000"/><rect x="738" y="620" width="6" height="6" fill="#000"/><rect x="744" y="620" width="6" height="6" fill="#000"/><rect x="762" y="620" width="6" height="6" fill="#000"/><rect x="768" y="620" width="6" height="6" fill="#000"/><rect x="774" y="620" width="6" height="6" fill="#000"/><rect x="780" y="620" width="6" height="6" fill="#000"/><rect x="660" y="626" width="6" height="6" fill="#000"/><rect x="666" y="626" width="6" height="6" fill="#000"/><rect x="672" y="626" width="6" height="6" fill="#000"/><rect x="690" y="626" width="6" height="6" fill="#000"/><rect x="702" y="626" width="6" height="6" fill="#000"/><rect x="726" y="626" width="6" height="6" fill="#000"/><rect x="738" y="626" width="6" height="6" fill="#000"/><rect x="744" y="626" width="6" height="6" fill="#000"/><rect x="750" y="626" width="6" height="6" fill="#000"/><rect x="774" y="626" width="6" height="6" fill="#000"/><rect x="780" y="626" width="6" height="6" fill="#000"/><rect x="666" y="632" width="6" height="6" fill="#000"/><rect x="672" y="632" width="6" height="6" fill="#000"/><rect x="696" y="632" width="6" height="6" fill="#000"/><rect x="708" y="632" width="6" height="6" fill="#000"/><rect x="720" y="632" width="6" height="6" fill="#000"/><rect x="732" y="632" width="6" height="6" fill="#000"/><rect x="738" y="632" width="6" height="6" fill="#000"/><rect x="756" y="632" width="6" height="6" fill="#000"/><rect x="762" y="632" width="6" height="6" fill="#000"/><rect x="780" y="632" width="6" height="6" fill="#000"/><rect x="708" y="638" width="6" height="6" fill="#000"/><rect x="714" y="638" width="6" height="6" fill="#000"/><rect x="720" y="638" width="6" height="6" fill="#000"/><rect x="726" y="638" width="6" height="6" fill="#000"/><rect x="762" y="638" width="6" height="6" fill="#000"/><rect x="774" y="638" width="6" height="6" fill="#000"/><rect x="780" y="638" width="6" height="6" fill="#000"/><rect x="660" y="644" width="6" height="6" fill="#000"/><rect x="666" y="644" width="6" height="6" fill="#000"/><rect x="672" y="644" width="6" height="6" fill="#000"/><rect x="678" y="644" width="6" height="6" fill="#000"/><rect x="684" y="644" width="6" height="6" fill="#000"/><rect x="690" y="644" width="6" height="6" fill="#000"/><rect x="696" y="644" width="6" height="6" fill="#000"/><rect x="714" y="644" width="6" height="6" fill="#000"/><rect x="720" y="644" width="6" height="6" fill="#000"/><rect x="756" y="644" width="6" height="6" fill="#000"/><rect x="762" y="644" width="6" height="6" fill="#000"/><rect x="660" y="650" width="6" height="6" fill="#000"/><rect x="696" y="650" width="6" height="6" fill="#000"/><rect x="708" y="650" width="6" height="6" fill="#000"/><rect x="714" y="650" width="6" height="6" fill="#000"/><rect x="726" y="650" width="6" height="6" fill="#000"/><rect x="732" y="650" width="6" height="6" fill="#000"/><rect x="738" y="650" width="6" height="6" fill="#000"/><rect x="750" y="650" width="6" height="6" fill="#000"/><rect x="762" y="650" width="6" height="6" fill="#000"/><rect x="780" y="650" width="6" height="6" fill="#000"/><rect x="660" y="656" width="6" height="6" fill="#000"/><rect x="672" y="656" width="6" height="6" fill="#000"/><rect x="678" y="656" width="6" height="6" fill="#000"/><rect x="684" y="656" width="6" height="6" fill="#000"/><rect x="696" y="656" width="6" height="6" fill="#000"/><rect x="714" y="656" width="6" height="6" fill="#000"/><rect x="726" y="656" width="6" height="6" fill="#000"/><rect x="762" y="656" width="6" height="6" fill="#000"/><rect x="774" y="656" width="6" height="6" fill="#000"/><rect x="660" y="662" width="6" height="6" fill="#000"/><rect x="672" y="662" width="6" height="6" fill="#000"/><rect x="678" y="662" width="6" height="6" fill="#000"/><rect x="684" y="662" width="6" height="6" fill="#000"/><rect x="696" y="662" width="6" height="6" fill="#000"/><rect x="708" y="662" width="6" height="6" fill="#000"/><rect x="738" y="662" width="6" height="6" fill="#000"/><rect x="744" y="662" width="6" height="6" fill="#000"/><rect x="756" y="662" width="6" height="6" fill="#000"/><rect x="774" y="662" width="6" height="6" fill="#000"/><rect x="780" y="662" width="6" height="6" fill="#000"/><rect x="660" y="668" width="6" height="6" fill="#000"/><rect x="672" y="668" width="6" height="6" fill="#000"/><rect x="678" y="668" width="6" height="6" fill="#000"/><rect x="684" y="668" width="6" height="6" fill="#000"/><rect x="696" y="668" width="6" height="6" fill="#000"/><rect x="714" y="668" width="6" height="6" fill="#000"/><rect x="720" y="668" width="6" height="6" fill="#000"/><rect x="732" y="668" width="6" height="6" fill="#000"/><rect x="744" y="668" width="6" height="6" fill="#000"/><rect x="756" y="668" width="6" height="6" fill="#000"/><rect x="768" y="668" width="6" height="6" fill="#000"/><rect x="780" y="668" width="6" height="6" fill="#000"/><rect x="660" y="674" width="6" height="6" fill="#000"/><rect x="696" y="674" width="6" height="6" fill="#000"/><rect x="714" y="674" width="6" height="6" fill="#000"/><rect x="750" y="674" width="6" height="6" fill="#000"/><rect x="756" y="674" width="6" height="6" fill="#000"/><rect x="762" y="674" width="6" height="6" fill="#000"/><rect x="660" y="680" width="6" height="6" fill="#000"/><rect x="666" y="680" width="6" height="6" fill="#000"/><rect x="672" y="680" width="6" height="6" fill="#000"/><rect x="678" y="680" width="6" height="6" fill="#000"/><rect x="684" y="680" width="6" height="6" fill="#000"/><rect x="690" y="680" width="6" height="6" fill="#000"/><rect x="696" y="680" width="6" height="6" fill="#000"/><rect x="708" y="680" width="6" height="6" fill="#000"/><rect x="726" y="680" width="6" height="6" fill="#000"/><rect x="732" y="680" width="6" height="6" fill="#000"/><rect x="738" y="680" width="6" height="6" fill="#000"/><rect x="744" y="680" width="6" height="6" fill="#000"/><rect x="756" y="680" width="6" height="6" fill="#000"/><rect x="774" y="680" width="6" height="6" fill="#000"/><text x="24" y="358" font-family="'DejaVu Sans Mono','Liberation Mono','Consolas','Courier New',monospace" font-size="18" fill="#000" transform="rotate(-90 24 340)">Siparis No: 1000000000000001</text></svg>